<svg version="1.1" xmlns="http://www.w3.org/2000/svg" xmlns:xlink="http://www.w3.org/1999/xlink" width="300" height="300"><g data-paper-data="{&quot;description&quot;:&quot;Logo for VivumLab\n=================\n\nThis logo was generated by MarkMaker and is composed of elements designed by others.\n\nThe font is Encode Sans Condensed Bold designed by Impallari Type and released under the OFL license via Google Fonts: https://www.google.com/fonts/specimen/Encode Sans Condensed. The font includes this copyright statement: Copyright (c) 2012, Impallari Type (www.impallari.com), with Reserved Font Name Encode Sans.\n\nMarkMaker uses semantic data from the Princeton University WordNet database http://wordnet.princeton.edu and font descriptions from Google Fonts https://www.google.com/fonts.\n\nThis design is inspired by designs that past users of MarkMaker have liked. As a result, it may be visually similar to past or future designs generated by the system. There is no guarantee that it is unique, original, or suitable in any way for use as a logo.\n\n&quot;}" fill="#0700db" fill-rule="nonzero" stroke="none" stroke-width="1" stroke-linecap="butt" stroke-linejoin="miter" stroke-miterlimit="10" stroke-dashoffset="0" font-family="none" font-weight="none" font-size="none" text-anchor="none" style="mix-blend-mode:normal"><g data-paper-data="{&quot;elementType&quot;:&quot;logo&quot;}"><g data-paper-data="{&quot;elementType&quot;:&quot;text&quot;}"><g data-paper-data="{&quot;baseline&quot;:80.80000000000001,&quot;elementType&quot;:&quot;row&quot;}"><g data-paper-data="{&quot;baselineProportion&quot;:0.9877750611246944,&quot;fontSize&quot;:100,&quot;baseline&quot;:80.80000000000001,&quot;elementType&quot;:&quot;word&quot;}"><path d="M6,131.72534h8.36025l7.07406,24.11611l1.76852,8.0387h0.58951l1.8757,-8.0387l7.02047,-24.11611h8.14589l-11.73651,39.65761h-11.25419z" data-paper-data="{&quot;elementType&quot;:&quot;letter&quot;,&quot;baseline&quot;:74,&quot;baselineProportion&quot;:1,&quot;fontSize&quot;:100}"/><path d="M52.73167,142.44362h8.0923v28.93934h-8.0923zM56.80461,138.04913c-1.60774,0 -2.75996,-0.34834 -3.45664,-1.04503c-0.69669,-0.69669 -1.04503,-1.81317 -1.04503,-3.34946c0,-1.53629 0.34834,-2.65277 1.04503,-3.34946c0.69669,-0.69669 1.8489,-1.04503 3.45664,-1.04503c1.60774,0 2.75996,0.35728 3.45664,1.07183c0.69669,0.71455 1.04503,1.82211 1.04503,3.32266c0,1.50056 -0.34834,2.60811 -1.04503,3.32266c-0.69669,0.71455 -1.8489,1.07183 -3.45664,1.07183" data-paper-data="{&quot;elementType&quot;:&quot;letter&quot;,&quot;baseline&quot;:78.60000000000001,&quot;baselineProportion&quot;:1,&quot;fontSize&quot;:100}"/><path d="M72.98921,143.03312v-0.58951h8.46744l4.76963,17.52438l0.91105,4.55527h0.53591l0.91105,-4.55527l4.82322,-17.52438h8.36025v0.58951l-9.59285,28.34983h-9.64645z" data-paper-data="{&quot;elementType&quot;:&quot;letter&quot;,&quot;baseline&quot;:54,&quot;baselineProportion&quot;:1,&quot;fontSize&quot;:100}"/><path d="M121.38221,171.91887c-2.42948,0 -4.3141,-0.68776 -5.65389,-2.06327c-1.33978,-1.37551 -2.00968,-3.29587 -2.00968,-5.76107v-21.65091h8.0923v19.13212c0,1.32192 0.24116,2.2687 0.72348,2.84034c0.48232,0.57164 1.2594,0.85746 2.33122,0.85746c0.82173,0 1.69706,-0.16971 2.62598,-0.50912c0.92892,-0.33941 1.94715,-0.83067 3.05471,-1.47376v-20.84704h8.0923v28.93934h-6.8061l-0.48232,-3.1083h-0.21437c-1.14328,0.67882 -2.13472,1.25047 -2.97432,1.71492c-0.8396,0.46446 -1.6256,0.8396 -2.35802,1.12542c-0.73242,0.28582 -1.44697,0.49125 -2.14365,0.6163c-0.69669,0.12505 -1.4559,0.18757 -2.27763,0.18757z" data-paper-data="{&quot;elementType&quot;:&quot;letter&quot;,&quot;baseline&quot;:54,&quot;baselineProportion&quot;:0.9818181818181818,&quot;fontSize&quot;:100}"/><path d="M153.37626,142.44362h6.64533l0.48232,3.16189h0.21437c2.0722,-1.32192 3.82285,-2.2687 5.25195,-2.84034c1.4291,-0.57164 2.87607,-0.85746 4.3409,-0.85746c3.07257,0 5.14477,1.25047 6.2166,3.7514h0.32155c1.96502,-1.35765 3.66208,-2.32229 5.09118,-2.89393c1.4291,-0.57164 2.89393,-0.85746 4.39449,-0.85746c2.25084,0 3.98362,0.67882 5.19836,2.03647c1.21474,1.35765 1.82211,3.28694 1.82211,5.78787v21.65091h-7.93152v-18.86416c0,-2.50093 -1.00037,-3.7514 -3.00112,-3.7514c-0.67882,0 -1.46483,0.15184 -2.35802,0.45553c-0.89319,0.30368 -1.80424,0.74135 -2.73316,1.31299v20.84704h-7.93152v-18.86416c0,-2.50093 -1.00037,-3.7514 -3.00112,-3.7514c-0.67882,0 -1.46483,0.15184 -2.35802,0.45553c-0.89319,0.30368 -1.80424,0.75921 -2.73316,1.36658v20.79345h-7.93152z" data-paper-data="{&quot;elementType&quot;:&quot;letter&quot;,&quot;baseline&quot;:55,&quot;baselineProportion&quot;:1,&quot;fontSize&quot;:100}"/><path d="M208.03945,128.08113h8.0923v43.30182h-8.0923z" data-paper-data="{&quot;elementType&quot;:&quot;letter&quot;,&quot;baseline&quot;:80.80000000000001,&quot;baselineProportion&quot;:1,&quot;fontSize&quot;:100}"/><path d="M237.30033,171.65091c-2.4652,0 -4.41236,-0.75028 -5.84146,-2.25084c-1.4291,-1.50056 -2.14365,-3.53703 -2.14365,-6.10942c0,-5.5735 3.51917,-8.59248 10.5575,-9.05694l5.51991,-0.37514v-0.58951c0,-1.0361 -0.07146,-1.89356 -0.21437,-2.57239c-0.14291,-0.67882 -0.41087,-1.22367 -0.80387,-1.63454c-0.393,-0.41087 -0.92892,-0.69669 -1.60774,-0.85746c-0.67882,-0.16077 -1.55415,-0.24116 -2.62598,-0.24116c-0.50019,0 -1.09862,0.0268 -1.79531,0.08039c-0.69669,0.05359 -1.42017,0.11611 -2.17045,0.18757c-0.75028,0.07146 -1.50056,0.16077 -2.25084,0.26796c-0.75028,0.10718 -1.41124,0.21437 -1.98288,0.32155l-0.53591,-5.78787c1.71492,-0.28582 3.42092,-0.52698 5.11798,-0.72348c1.69706,-0.1965 3.31373,-0.29475 4.85002,-0.29475c4.21585,0 7.27949,0.75921 9.19092,2.27763c1.91143,1.51842 2.86714,3.90324 2.86714,7.15445v19.93599h-6.64533l-0.6431,-3.48344h-0.48232c-1.10755,1.14328 -2.37588,2.05434 -3.80499,2.73316c-1.4291,0.67882 -2.94753,1.01824 -4.55527,1.01824M240.46223,165.80945c0.82173,0 1.6792,-0.20543 2.57239,-0.6163c0.89319,-0.41087 1.6792,-0.86639 2.35802,-1.36658v-5.30555l-3.53703,0.32155c-1.64347,0.17864 -2.79568,0.54485 -3.45664,1.09862c-0.66096,0.55378 -0.99144,1.40231 -0.99144,2.54559c0,2.21511 1.01824,3.32266 3.05471,3.32266z" data-paper-data="{&quot;elementType&quot;:&quot;letter&quot;,&quot;baseline&quot;:54.800000000000004,&quot;baselineProportion&quot;:0.9909584086799277,&quot;fontSize&quot;:100}"/><path d="M279.63751,171.91887c-1.64347,0 -3.39412,-0.15184 -5.25195,-0.45553c-1.85783,-0.30368 -4.00149,-0.79494 -6.43096,-1.47376v-41.90845h8.0923v17.31001c1.78638,-2.28656 4.35876,-3.42985 7.71716,-3.42985c6.82397,0 10.23595,4.69818 10.23595,14.09453c0,2.39375 -0.27689,4.55527 -0.83067,6.48456c-0.55378,1.92929 -1.42017,3.58169 -2.59918,4.9572c-1.17901,1.37551 -2.67064,2.44734 -4.47488,3.21548c-1.80424,0.76814 -3.95683,1.17008 -6.45776,1.20581M279.7447,166.45255c1.10755,0 2.05434,-0.15184 2.84034,-0.45553c0.78601,-0.30368 1.41124,-0.83067 1.8757,-1.58095c0.46446,-0.75028 0.80387,-1.73279 1.01824,-2.94753c0.21437,-1.21474 0.32155,-2.73316 0.32155,-4.55527c0,-1.75065 -0.08039,-3.20655 -0.24116,-4.3677c-0.16077,-1.16115 -0.42873,-2.09006 -0.80387,-2.78675c-0.37514,-0.69669 -0.86639,-1.18794 -1.47376,-1.47376c-0.60737,-0.28582 -1.35765,-0.42873 -2.25084,-0.42873c-1.60774,0 -2.84034,0.58057 -3.6978,1.74172c-0.85746,1.16115 -1.28619,3.20655 -1.28619,6.13621v10.18236c0.50019,0.17864 1.0629,0.31262 1.68813,0.40194c0.62523,0.08932 1.29512,0.13398 2.00968,0.13398z" data-paper-data="{&quot;elementType&quot;:&quot;letter&quot;,&quot;baseline&quot;:80.80000000000001,&quot;baselineProportion&quot;:0.9877750611246944,&quot;fontSize&quot;:100}"/></g></g></g></g></g></svg>
